<mxfile host="app.diagrams.net" modified="2023-06-14T20:20:19.032Z" agent="Mozilla/5.0 (Windows NT 10.0; Win64; x64; rv:109.0) Gecko/20100101 Firefox/114.0" etag="uDbGK-MT53qAb9Bzc6L4" version="21.3.7" type="github">
  <diagram name="PÃ¡gina-1" id="wX4Nho8EWxhxgS2OfkSw">
    <mxGraphModel dx="2074" dy="746" grid="1" gridSize="10" guides="1" tooltips="1" connect="1" arrows="1" fold="1" page="1" pageScale="1" pageWidth="827" pageHeight="1169" math="0" shadow="0">
      <root>
        <mxCell id="0" />
        <mxCell id="1" parent="0" />
      </root>
    </mxGraphModel>
  </diagram>
</mxfile>
